# xmcd
# 
# Track frame offsets:
#     150
#     24683
#     36285
#     51943
#     78048
#     91968
#     113233
#     136625
#     159798
# 
# Disc length: 2305
# 
# Revision: 2
# Processed by: cddbd v1.5.2PL0 Copyright (c) Steve Scherf et al.
# Submitted via: BonkEnc v1.0.8
# 
DISCID=6108ff09
DTITLE=Sonny Sharrock - Nicky Skopelitis - Faith Moves
DYEAR=1991
DGENRE=Free, Avant
TTITLE0=Who Are You
TTITLE1=Becoming
TTITLE2=Mescalito
TTITLE3=Venus
TTITLE4=In The Flesh
TTITLE5=Sacrifice
TTITLE6=First Of Equals
TTITLE7=The Pyre
TTITLE8=Uncle Herbie's Dance
EXTD=YEAR: 1991
EXTT0=
EXTT1=
EXTT2=
EXTT3=
EXTT4=
EXTT5=
EXTT6=
EXTT7=
EXTT8=
PLAYORDER=
